<?xml version="1.0" encoding="utf-8"?>
<!-- Generator: Adobe Illustrator 22.0.0, SVG Export Plug-In . SVG Version: 6.00 Build 0)  -->
<svg version="1.1" id="Calque_1" xmlns="http://www.w3.org/2000/svg" xmlns:xlink="http://www.w3.org/1999/xlink" x="0px" y="0px"
	 viewBox="0 0 432 432" style="enable-background:new 0 0 432 432;" xml:space="preserve">
<style type="text/css">
	.st0{fill:#E5DAC7;}
	.st1{fill:#FAF3E3;}
	.st2{fill:#C7B29A;}
	.st3{fill:#972021;}
	.st4{fill:#E9EAE4;}
	.st5{fill:#8C633A;}
	.st6{fill:#F39323;}
	.st7{fill:#ED6F71;}
	.st8{fill:#FFFFFF;}
	.st9{fill:#B6CE3F;}
	.st10{fill:#95AF23;}
	.st11{fill:#18B0C1;}
	.st12{fill:#C2E1D1;}
	.st13{fill:#9F1E29;}
	.st14{fill:#E6E9EA;}
	.st15{fill:#020203;}
	.st16{fill:#4D9564;}
	.st17{fill:#754D24;}
	.st18{fill:#A67D52;}
	.st19{fill:#F0D2B5;}
	.st20{fill:#E1BC9E;}
	.st21{fill:#97509A;}
	.st22{fill:#603914;}
	.st23{fill:#E83078;}
	.st24{fill:#E89125;}
	.st25{fill:#89BF4A;}
	.st26{fill:#82171C;}
	.st27{fill:#6CC2EE;}
	.st28{fill:#1861A9;}
	.st29{fill:#E00825;}
	.st30{fill:#109F3D;}
	.st31{fill:#808181;}
	.st32{fill:#D79A5D;}
	.st33{fill:#C68448;}
	.st34{fill:#D62416;}
	.st35{fill:#F9D61D;}
	.st36{fill:#A9191E;}
	.st37{fill:#F3E4E7;}
	.st38{fill:none;}
	.st39{fill:#E8CAA3;}
	.st40{fill:#64121D;}
	.st41{fill:#15A57E;}
	.st42{fill:#167157;}
	.st43{fill:#CF8916;}
	.st44{fill:#B26F14;}
	.st45{fill:#901D81;}
	.st46{fill:#612261;}
	.st47{fill:#B88E5C;}
	.st48{fill:#EBDCC8;}
	.st49{fill:#F3A0BE;}
	.st50{fill:#FAD7E3;}
	.st51{fill:#EAD797;}
	.st52{fill:#E18CAC;}
	.st53{fill:#A8D9DD;}
	.st54{fill:#67C2C6;}
	.st55{fill:#4EADAD;}
	.st56{fill:#CDCCCC;}
	.st57{fill:#D4C3B3;}
	.st58{fill:#CAB9A7;}
	.st59{fill:#C69C6C;}
	.st60{fill:#D7C5B3;}
	.st61{fill:#96877C;}
	.st62{fill:#EFE8E9;}
	.st63{fill:#B4B4B4;}
	.st64{fill:#F0CC53;}
	.st65{fill:#EE7D54;}
	.st66{fill:#F5D29D;}
	.st67{fill:#5D403F;}
	.st68{fill:#F9CBCC;}
	.st69{fill:#F6DEB8;}
	.st70{fill:#D6A14D;}
	.st71{fill:#B09878;}
	.st72{fill:#C1292E;}
	.st73{fill:#5B4841;}
	.st74{fill:#E0C399;}
	.st75{fill:#EBDA8C;}
	.st76{fill:#363A3D;}
	.st77{fill:#BFC1D7;}
	.st78{fill:#7188BA;}
	.st79{fill:#A34F4D;}
	.st80{fill:#D9CD7A;}
	.st81{fill:#D9AF66;}
	.st82{fill:#E6C776;}
	.st83{fill:#575756;}
	.st84{fill:#C3BF5B;}
	.st85{fill:#63622A;}
	.st86{fill:#E1AE9D;}
	.st87{fill:#D9C7AB;}
	.st88{fill:#B3625C;}
	.st89{fill:#D4BB78;}
	.st90{fill:#009245;}
	.st91{fill:#0B7B3A;}
	.st92{fill:#911A29;}
	.st93{fill:#571419;}
	.st94{fill:#9A9999;}
	.st95{fill:#A81922;}
	.st96{fill:#A3282E;}
	.st97{fill:#B3713B;}
	.st98{fill:#998675;}
	.st99{fill:#6189B1;}
	.st100{fill:#E0EDF3;}
	.st101{fill:#A5C0DF;}
	.st102{fill:#DBDBDB;}
	.st103{fill:#067838;}
	.st104{fill:#E5AEBF;}
	.st105{fill:#9982BC;}
	.st106{fill:#E7E6E6;}
	.st107{fill:#706F6F;}
	.st108{fill:#746458;}
	.st109{fill:#412413;}
	.st110{fill:#544842;}
	.st111{fill:#DAA405;}
	.st112{fill:#D06C5D;}
	.st113{fill:#8C694B;}
	.st114{fill:#C8C8CE;}
	.st115{fill:#D286A7;}
	.st116{fill:#C6CCCC;}
	.st117{fill:#A65F42;}
	.st118{fill:#343434;}
	.st119{fill:#A56E45;}
	.st120{fill:#F2F2F2;}
	.st121{fill:#8AC18A;}
	.st122{fill:#4B6678;}
	.st123{fill:#324C5B;}
	.st124{fill:#97AFBC;}
	.st125{fill:#B27D63;}
	.st126{fill:#6A737A;}
	.st127{fill:#72403F;}
	.st128{fill:#8D7968;}
	.st129{fill:#1B1B1B;}
	.st130{fill:#6B141A;}
	.st131{fill:#E4DCCC;}
	.st132{fill:#B33949;}
	.st133{fill:#6D141B;}
	.st134{fill:#911825;}
	.st135{fill:#821622;}
	.st136{fill:#1F1D1D;}
	.st137{fill:#CC1417;}
	.st138{fill:#69362D;}
	.st139{fill:#ECC9AE;}
	.st140{fill:#471E19;}
	.st141{fill:#2B1D1C;}
	.st142{fill:#BE1622;}
	.st143{fill:#E6332A;}
	.st144{fill:#D8EAF8;}
	.st145{fill:#D4AE8E;}
	.st146{fill:#883B4C;}
	.st147{fill:#C74A54;}
	.st148{fill:#F2959C;}
	.st149{fill:#3C3C3B;}
</style>
<g>
	<path d="M349.5,70.3c-1.3-3.3-3.8-5.3-7.4-5.5c-1.4-0.1-2.9,0.2-4.2,0.5c-3.1,0.8-5.9,2.2-8.5,3.9c-5.3,3.5-10.5,7.1-15.7,10.8
		c-9.4,6.9-18.7,13.9-28.2,20.8c-7,5.1-14.4,9.6-22.4,13.1c-4.4,1.9-8.8,3.7-13.6,4.3c-1.2,0.1-2.3,0.4-3.5,0.3
		c-4.9-0.7-9.8-1.7-14.7-2.4c-5.2-0.7-10.4-1.4-15.6-1.7c-6.3-0.3-12.6-0.2-18.9-0.2c-5.4,0-10.8,0.4-16.2,1.2
		c-1,0.2-1.9-0.1-2.7-0.7c-5.6-4.1-11.2-8.3-16.9-12.3c-8.8-6.3-17.7-12.6-27-18.2c-7.4-4.6-15.1-8.7-23.3-11.7
		c-2.7-1-5.4-1.9-8.3-2.2c-4.3-0.4-8.1,1.7-9.3,6.3c-0.3,1-0.4,2-0.5,3c-0.5,3.6-0.2,7.1,0.1,10.7c0.5,7,1.7,13.9,2.7,20.8
		c0.8,5.6,1.8,11.2,2.5,16.8c0.8,6.2,1.5,12.3,2.2,18.5c0.7,6.4,1.1,12.7,1.2,19.1c0,1.7-0.2,3.4-1.2,4.8c-0.4,0.5-0.6,1.1-0.9,1.6
		c-5,9.5-8.7,19.5-11.7,29.7c-3.4,11.5-5.3,23.2-5.9,35.2c-0.5,9.8-0.5,19.6,0.8,29.3c1.1,8.5,2.9,16.9,5.8,25
		c3.7,10.1,8.6,19.5,14.9,28.2c4.8,6.7,10.5,12.6,17.4,17.4c5,3.5,10.1,6.7,15.3,9.9c5.7,3.6,11.9,6.3,18.1,9.1
		c7.4,3.3,15,5.8,22.9,7.5c5.2,1.1,10.4,1.8,15.6,2.5c7.2,0.9,14.4,1.6,22,1.5c7.5,0.1,15.3-0.6,23-2c17-3,33.2-8.6,48.3-16.8
		c9.9-5.4,19-11.7,27-19.7c11.9-11.9,20.4-25.8,26.2-41.5c4.8-13,7.1-26.5,8-40.3c0.6-9.6,0.2-19.2-0.8-28.8
		c-1.2-11.1-2.9-22-5.3-32.9c-1-4.6-1.9-9.3-3.8-13.7c-1.3-3-1.5-6-1.2-9.2c0.8-8.2,2-16.4,3.3-24.6c1.1-6.8,2.4-13.6,3.6-20.4
		c1-5.4,1.8-10.7,2.9-16.1c0.9-4.3,2.1-8.5,3.1-12.8c0.8-3.6,1.5-7.3,1.7-11C350.5,75,350.4,72.6,349.5,70.3z M274.5,137.8
		c0.6-0.3,1.2-0.2,1.6,0.3c0.3,0.3,0.5,0.7,0.6,1c1.7,3.4,3.4,6.9,5.2,10.3c4.3,8,9.4,15.4,15.7,21.9c0.3,0.3,0.6,0.6,0.9,0.9
		c0.1,0,0.2-0.1,0.3-0.1c-0.2-2.6-0.3-5.2-0.5-7.7c-0.6-9.3-1.5-18.5-1.2-27.8c0.1-3.1-0.1-6.2-0.2-9.2c0-0.8,0-1.5,0.2-2.3
		c0.1-0.9,0.7-1.6,1.6-1.7c0.9-0.2,1.8,0.2,2.2,1.1c0.5,1.2,0.8,2.5,1,3.7c0.8,5.2,0.8,10.5,1.1,15.8c0.2,4,0.6,8,0.9,12
		c0.5,6,1,12,1.5,18c0.3,3.9,0.6,7.7,0.9,11.6c0.7,10.2,0.8,20.4,0.5,30.5c-0.1,4.1-0.4,8.1-0.6,12.2c-0.1,0.9-0.3,1.9-0.7,2.7
		c-0.6,1.3-1.7,1.8-3.1,1.7c-1.2-0.1-2.1-1-2.4-2.4c-0.1-0.6-0.2-1.2-0.2-1.9c0.1-5.6,0.3-11.3,0.2-16.9c-0.1-9.2-0.4-18.4-0.6-27.6
		c0-1.7-0.2-3.3-0.2-5c0-0.6-0.3-1.1-0.7-1.5c-5.2-5.3-10.4-10.7-14.4-17.1c-3.4-5.4-6.5-11.1-8.8-17.1c-0.4-1-0.8-2-1.2-3
		c-0.1-0.4-0.3-0.8-0.3-1.1C273.7,138.5,274,138,274.5,137.8z M317.2,242.3c-1.3,0.2-2.6,0.2-3.9,0.3c-5.3,0.3-10.6,0.5-15.9,1
		c-9.5,0.7-18.9,2.4-27.9,5.6c-3,1-5.8,2.3-8.5,4c-0.3,0.2-0.6,0.3-1,0.4c-0.8,0.1-1.5-0.2-1.8-0.9c-0.3-0.6-0.1-1.3,0.5-1.8
		c0.3-0.3,0.7-0.5,1-0.7c6.3-3.8,13.2-6.2,20.4-7.9c6.1-1.5,12.4-2.3,18.7-2.7c4.9-0.3,9.7-0.8,14.6-1.2c1.2-0.1,2.4-0.2,3.6-0.1
		c1.3,0,2.2,1,2.1,2.1C319.2,241.3,318.5,242.1,317.2,242.3z M320.4,254.6c0.6,0.4,1,1.1,0.8,1.9c-0.2,0.7-0.6,1.3-1.4,1.5
		c-0.6,0.1-1.2,0.2-1.9,0.1c-4.3-0.3-8.5-0.7-12.8-1.1c-6.4-0.5-12.8-1-19.3-0.4c-7.2,0.7-14.5,1.7-21.6,3.2
		c-0.7,0.2-1.4,0.5-2.2,0.7c-0.4,0.1-0.8,0.2-1.2,0.2c-0.6,0-1.1-0.4-1.3-1c-0.2-0.6-0.1-1.2,0.4-1.6c0.6-0.4,1.3-0.8,2-1
		c3.1-0.8,6.2-1.7,9.3-2.3c5.2-1.1,10.5-1.8,15.8-2.2c2.9-0.2,5.8,0,8.7,0c0-0.1,0-0.2,0-0.2c7.5,0.5,15,1,22.4,1.5
		C319.1,254,319.8,254.3,320.4,254.6z M236.9,137.6c0.1-0.6,0.7-1,1.6-1c1.2,0.1,2.3,0.2,3.5,0.3c5.2,0.4,10.4,0.1,15.4-1
		c2.2-0.5,4.4-1,6.7-1.5c0.3-0.1,0.6-0.1,0.9-0.2c2.1-0.3,3.8,0.7,4.2,2.8c0.2,1.1,0.3,2.3,0.2,3.5c-0.4,3.1-0.8,6.1-1.4,9.1
		c-2.4,11.7-5.1,23.4-7.4,35.1c-1.8,9.1-3.3,18.2-5,27.3c-0.8,4.1-1.5,8.3-2.3,12.4c-0.1,0.5-0.1,0.9-0.2,1.6
		c0.6-0.2,1.1-0.3,1.6-0.4c3.5-1.2,7.2-1.7,10.9-1.8c3.2-0.1,6.3,0.1,9.5,0.1c0.3,0,0.5,0,0.8,0.1c0.8,0.2,1.4,0.9,1.3,1.6
		c0,0.7-0.5,1.4-1.2,1.6c-0.6,0.1-1.2,0.2-1.9,0.2c-2.7,0.1-5.5,0.1-8.2,0.1c-5.1,0.2-10,1.4-14.4,4c-0.4,0.2-0.9,0.5-1.3,0.6
		c-1.9,0.4-3.5-0.7-3.7-2.7c-0.2-1.9-0.2-3.8,0.1-5.6c2.1-12.3,4.2-24.5,6.4-36.8c2.3-12.7,5.7-25.1,8.8-37.5
		c0.8-3.3,1.5-6.7,2.2-10.1c0.1-0.3,0.1-0.7,0.1-1.3c-2.5,0.4-4.7,0.7-6.9,1.1c-5.5,1.1-11,1.2-16.5,0.7c-0.7-0.1-1.3-0.2-2-0.4
		c-0.3-0.1-0.6-0.2-0.9-0.3C237.1,138.7,236.8,138.2,236.9,137.6z M227.8,255.7c-1.3-0.1-2.5-0.1-3.8-0.2c-0.7,0-1.4,0-2.1-0.1
		c-1.2-0.2-2-0.9-2-1.8c0-1,0.6-1.8,1.9-1.9c1.7-0.2,3.4-0.2,5.1-0.3c0.3,0,0.7,0,1.2,0c0.1-2,0.2-3.9,0.3-5.8
		c0.1-1.9,0.3-3.7,0.5-5.6c0.1-0.5,0.2-1.1,0.4-1.5c0.4-1,1.2-1.7,2.4-1.6c1.2,0,2,0.7,2.3,1.7c0.3,0.9,0.5,1.8,0.5,2.7
		c0.2,3,0.3,6.1,0.4,9.1c0,0.4,0.1,0.9,0.1,1.3c0.9,0,1.7,0,2.5,0c0.8,0,1.5-0.1,2.3-0.1c0.4,0,0.9,0.1,1.3,0.3
		c0.8,0.3,1.3,1.1,1.2,1.9c-0.1,0.8-0.7,1.4-1.6,1.6c-1.1,0.1-2.2,0.2-3.3,0.3c-0.7,0.1-1.4,0.1-2.2,0.2c0,0.4-0.1,0.7-0.1,1.1
		c0,5.4,0,10.7,0.1,16.1c0,1.1,0.3,2.3,0.5,3.4c0.1,0.6,0.5,1.2,0.9,2c0.6-0.7,1.2-1.1,1.5-1.6c0.9-1.3,1.6-2.7,2.4-4
		c0.4-0.6,0.8-1.3,1.3-1.8c1.1-1,2.5-0.4,2.6,1c0.1,0.8,0,1.7-0.3,2.5c-0.9,2.5-2.3,4.7-3.9,6.8c-1.5,2-3.7,2.6-6.1,1.9
		c-2.8-0.8-4.6-2.7-5.5-5.4c-0.7-2.1-1-4.3-1-6.5c0.1-5,0.2-9.9,0.3-14.9C227.8,256.3,227.8,256,227.8,255.7z M215.3,275.9
		c0.1,0.8,0.2,1.6,1,2.1c1.2-0.4,2-1.3,2.9-2.1c0.5-0.4,0.9-0.9,1.4-1.2c0.7-0.4,1.5-0.5,2.1,0.1c0.7,0.5,0.8,1.2,0.6,1.9
		c-0.2,0.7-0.5,1.4-1,1.9c-1.2,1.3-2.5,2.7-3.9,3.8c-1.6,1.3-3.4,1.5-5.3,0.7c-2-0.8-3.1-1.8-4.5-4.2c-0.3,0.5-0.6,0.9-0.8,1.2
		c-3,4.4-8.9,5-12.6,1.1c-2-2.1-3.2-4.6-3.8-7.3c-2.2-8.5-1.1-16.5,3.6-23.9c1-1.5,2.2-2.9,3.7-3.9c3.7-2.5,7.5-2.6,11.4-0.5
		c0.2,0.1,0.4,0.3,0.7,0.4c0.2-0.6,0.4-1.2,0.6-1.7c0.4-1,1.1-1.6,2.2-1.6c1.1,0,1.8,0.6,2.2,1.6c0.3,0.7,0.5,1.5,0.5,2.2
		c0.1,2.4,0.1,4.7,0,7.1c-0.2,3.6-0.6,7.1-0.9,10.7C215.3,268.3,214.9,272.1,215.3,275.9z M207.6,155.1c1.7-5,3.5-9.9,5.4-14.9
		c0.6-1.7,1.6-3.2,2.5-4.7c0.2-0.3,0.4-0.6,0.6-0.9c2.3-3,5.5-3.1,7.9-0.2c0.9,1.1,1.6,2.4,2.1,3.7c1.7,4,2.6,8.2,3.5,12.3
		c1.8,7.9,3.2,15.8,4.2,23.9c0.8,7.1,1.6,14.2,2.3,21.3c0.7,7.3,1.4,14.6,2.1,21.9c0.4,3.9,0.8,7.8,1.1,11.7c0.1,0.7,0.1,1.3,0,2
		c-0.1,1.7-1.1,2.9-2.6,3.1c-1.5,0.2-2.9-0.5-3.5-2.1c-0.4-1.2-0.6-2.5-0.8-3.8c-0.4-3.4-0.8-6.8-1.2-10.2c0-0.3-0.1-0.7-0.2-1.2
		c-11.3,0-22.4-1.4-33.6-1.5c-0.4,1.9-0.8,3.7-1.2,5.6c-0.6,3-1.3,5.9-1.9,8.9c-0.1,0.4-0.2,0.8-0.3,1.2c-0.3,0.9-1,1.3-1.8,1.1
		c-0.7-0.2-1.2-0.8-1-1.8c0.2-1.8,0.5-3.6,0.8-5.4c2.5-13,4.9-26.1,7.7-39C201.8,175.7,204.2,165.3,207.6,155.1z M175.7,137.3
		c0.4-1.4,0.8-2.7,1.4-4c0.8-1.7,2.2-2.5,4-2.3c4.4,0.4,8.3,1.9,11.1,5.6c2.5,3.3,3.7,7.1,4.3,11.1c1.5,9.1,0.1,17.9-3.1,26.5
		c-2.1,5.7-4.8,11-8.8,15.6c-4.5,5.2-9.9,9.1-16.6,11c-0.2,0-0.3,0.1-0.6,0.3c0.2,0.6,0.4,1.2,0.6,1.7c3.5,8.6,7.8,16.7,12.8,24.6
		c0.3,0.5,0.7,1,1,1.6c0.5,0.9,0.3,1.8-0.3,2.5c-0.7,0.7-1.7,0.9-2.6,0.4c-0.6-0.4-1.2-0.9-1.5-1.4c-2-3-4.1-6.1-5.9-9.2
		c-2.5-4.3-4.7-8.8-7-13.3c-0.1-0.3-0.3-0.5-0.5-1.1c-0.2,0.6-0.3,1-0.4,1.3c-1.1,4.9-2.1,9.9-3.2,14.8c-0.3,1.3-0.7,2.5-1.1,3.7
		c-0.2,0.6-0.5,1.1-0.9,1.6c-0.8,0.9-2,1.1-3.1,0.7c-1.1-0.5-1.7-1.4-1.6-2.6c0.1-0.8,0.2-1.7,0.4-2.5c1.6-7.5,3.2-15.1,4.9-22.6
		c3.3-14.2,7-28.2,11-42.3C171.9,151.7,173.8,144.5,175.7,137.3z M174.4,271.4c0.5,1.5,1.1,2.9,2.4,4c0.6,0.5,1.3,0.9,2,1.3
		c1.1,0.5,1.7,0.3,2.5-0.6c0.6-0.8,1.1-1.6,1.6-2.5c0.5-0.8,1.2-1.3,2.1-1.4c1.6-0.2,3,1.2,2.7,2.7c-0.8,3.6-3.5,7.3-7.6,8
		c-2.3,0.4-4.5-0.2-6.5-1.3c-3.2-1.7-5.1-4.5-6.3-7.9c-0.9-2.9-1.4-5.8-1.4-8.8c0.1-4.4,0.8-8.6,2.7-12.6c0.9-1.9,2-3.6,3.6-5
		c2.1-1.9,4.6-2.8,7.5-2.7c4.8,0.2,7.9,4.8,6.4,9.3c-0.1,0.3-0.2,0.5-0.3,0.7c-0.5,0.8-1.3,1.3-2.1,1.1c-0.8-0.1-1.4-0.8-1.6-1.8
		c-0.1-0.7-0.1-1.4-0.3-2.1c-0.4-1.5-1.4-2.1-2.9-1.7c-1.2,0.3-2,1.1-2.7,2.1c-1.3,1.8-1.9,3.9-2.3,6C173,262.7,173,267,174.4,271.4
		z M158.9,129.4c4.8-0.5,9.5,2.7,10.4,7.3c0.6,2.6-0.3,5-1.7,7.1c-0.5,0.8-1.3,0.9-2,0.5c-0.6-0.4-0.8-1-0.5-1.9
		c0.3-0.8,0.6-1.7,0.8-2.5c1.1-3.8-2.6-6.9-5.6-6.7c-1.6,0.1-3.1,0.6-4.5,1.3c-2.6,1.3-4.8,3.1-6.8,5.1c-3.1,3-5.8,6.3-8.2,9.9
		c-7.7,11.9-14.2,24.5-19.3,37.7c-1.6,4.1-2.9,8.3-3.5,12.6c-0.5,3.9-0.4,7.8,0.9,11.6c0.9,2.4,2.2,4.6,4.2,6.3
		c2.5,2.1,4.8,2.1,7.3,0c1.8-1.4,3.1-3.2,4.3-5.1c1-1.5,1.9-3,2.9-4.5c0.3-0.4,0.6-0.9,1.1-1.2c0.6-0.5,1.5-0.4,2.1,0
		c0.6,0.5,0.8,1.2,0.5,2c-0.1,0.2-0.1,0.3-0.2,0.5c-1.6,2.7-3.1,5.4-4.9,8c-1,1.4-2.2,2.7-3.5,3.9c-3.6,3.2-8.2,3.4-12.3,0.7
		c-3.1-2.1-5.2-5-6.6-8.4c-1.4-3.3-1.9-6.8-1.9-10c0.1-5.4,1.2-10.3,2.8-15c3.3-9.9,7.8-19.3,12.9-28.4c3.4-6.1,7.1-12.1,11.5-17.6
		c2.9-3.6,6.2-6.9,10-9.6C152.3,131.2,155.4,129.8,158.9,129.4z M106.9,91.7c1-0.8,2.1-0.5,3.1,0.1c1.1,0.7,2.2,1.3,3.3,2.1
		c3.7,2.9,7.4,5.9,11.1,8.9c6.1,5.2,12.4,10,18.9,14.8c0.8,0.6,1.5,1.2,2.1,1.8c0.7,0.7,0.8,1.6,0.3,2.3c-0.5,0.8-1.4,1.2-2.3,0.8
		c-1.2-0.5-2.4-1.1-3.6-1.8c-6.2-4.1-12.1-8.6-17.7-13.4c-3.6-3.1-7.1-6.2-10.7-9.4c-0.3-0.3-0.7-0.5-1-0.8c-0.1,0-0.1,0.1-0.2,0.1
		c0.3,1.4,0.6,2.8,0.9,4.2c2,8.6,3.5,17.2,4.5,26c0.5,4.2,0.8,8.3,1.2,12.5c0.1,0.9,0,1.9-0.1,2.8c-0.1,0.8-0.6,1.3-1.3,1.3
		c-0.7,0-1.1-0.4-1.3-1.3c-0.2-1.4-0.2-2.8-0.4-4.3c-1.4-14-3.7-27.9-7.2-41.5c-0.2-0.7-0.3-1.5-0.5-2.2
		C105.9,93.5,105.9,92.4,106.9,91.7z M99.8,238.2c1.2,0,2.4,0,3.6,0.1c4.9,0.4,9.7,0.9,14.6,1.2c6.3,0.4,12.5,1.3,18.7,2.7
		c7.2,1.7,14,4.1,20.4,7.9c0.3,0.2,0.7,0.4,1,0.7c0.6,0.5,0.8,1.2,0.5,1.8c-0.3,0.7-1,1-1.8,0.9c-0.3-0.1-0.7-0.2-1-0.4
		c-2.7-1.6-5.5-2.9-8.5-4c-9-3.2-18.4-4.8-27.9-5.6c-5.3-0.4-10.6-0.6-15.9-1c-1.3-0.1-2.6-0.1-3.9-0.3c-1.2-0.2-2-1-2-2
		C97.7,239.1,98.5,238.2,99.8,238.2z M96.5,254.6c0.6-0.3,1.3-0.6,2-0.7c7.5-0.5,15-1,22.4-1.5c0,0.1,0,0.2,0,0.2
		c2.9,0,5.8-0.1,8.7,0c5.3,0.3,10.6,1.1,15.8,2.2c3.1,0.7,6.2,1.5,9.3,2.3c0.7,0.2,1.4,0.6,2,1c0.5,0.4,0.7,0.9,0.4,1.6
		c-0.2,0.6-0.7,1-1.3,1c-0.4,0-0.8-0.1-1.2-0.2c-0.7-0.2-1.4-0.5-2.2-0.7c-7.1-1.6-14.3-2.5-21.6-3.2c-6.4-0.6-12.8-0.2-19.3,0.4
		c-4.3,0.3-8.5,0.7-12.8,1.1c-0.6,0-1.3,0-1.9-0.1c-0.8-0.2-1.2-0.8-1.4-1.5C95.5,255.7,95.8,255,96.5,254.6z M111,275.6
		c-4.4,1.7-8.6,3.7-12.9,5.5c-0.6,0.3-1.2,0.5-1.9,0.6c-1.1,0.2-2.2-0.5-2.5-1.5c-0.3-0.9,0.1-1.9,1.1-2.5c0.2-0.1,0.5-0.3,0.7-0.4
		c5.4-2.5,10.7-4.9,16.3-6.7c10.5-3.4,21.2-5.5,33.8-5.6c2.2,0.2,6.1,0.4,10,0.7c0.7,0.1,1.4,0.2,2.1,0.4c1.1,0.4,1.4,1.7,0.7,2.5
		c-0.4,0.5-1,0.6-1.6,0.5c-2.9-0.1-5.7-0.3-8.6-0.4c-4.1-0.2-8.1,0-12.2,0.5C127.4,270.4,119,272.4,111,275.6z M288.4,336.8
		c-2,1.3-4.2,2.2-6.5,2.6c-3.5,0.6-7,1.2-10.5,1.6c-3.7,0.4-7.5,0.8-11,2.2c-3.4,1.3-6.2,3.3-8,6.6c-0.1,0.2-0.2,0.4-0.4,0.6
		c-0.5,0.6-1.1,0.8-1.6,0.5c-0.6-0.3-0.8-0.9-0.4-1.6c1.1-2.2,2.3-4.2,4.4-5.7c3.4-2.5,7.3-4,11.5-4.6c3.7-0.5,7.4-1,11.2-1.5
		c2.3-0.3,4.6-0.8,6.7-1.7c0.8-0.3,1.6-0.7,2.4-1.2c2.8-1.7,4.1-4.2,3.6-7.4c-0.3-1.7-0.8-3.4-1.4-5c-1.1-2.9-2.4-5.7-3.5-8.5
		c-0.4-0.9-0.7-1.9-1.1-3.1c-0.4,0.6-0.7,1-1,1.3c-2.6,3.7-5.2,7.4-7.8,11.1c-0.9,1.2-1.9,2.4-2.9,3.5c-1.5,1.6-3.3,2.8-5.3,3.5
		c-3.4,1.3-5.9,0.1-7.1-3.3c-0.1-0.3-0.2-0.5-0.2-0.8c-0.6,0.1-0.7,0.6-0.9,0.9c-1.8,2.9-3.5,5.8-5.4,8.6c-1.3,2-2.8,3.8-4.3,5.6
		c-1,1.2-2.2,2.1-3.6,2.7c-2.4,0.9-4.7,0.3-6.2-1.7c-0.6-0.8-1-1.8-1.6-2.8c-1,1.2-2,2.4-2.9,3.6c-1.8,2.1-3.9,4-6.5,5
		c-1.8,0.7-3.6,0.9-5.4,0.5c-2.3-0.4-3.7-2-4.6-4.1c-1-2.3-1.3-4.8-1.2-7.3c0-0.2,0-0.4,0-0.7c0,0,0-0.1-0.1-0.3
		c-0.4,0.3-0.8,0.5-1.1,0.8c-3,2.2-5.9,4.5-8.9,6.7c-2.2,1.6-4.5,2.9-7,3.8c-4.3,1.6-7.7-0.1-9.2-4.5c-0.5-1.4-0.5-2.8-0.4-4.2
		c0-0.4,0.1-0.9,0.1-1.5c-0.4,0.2-0.6,0.3-0.9,0.5c-1.4,1-2.7,1.9-4,2.9c-1.9,1.4-4.1,2.3-6.4,2.6c-6.9,0.8-10.6-3.4-10.3-9.4
		c0.1-1.8,0.6-3.6,0.9-5.5c-0.4,0.2-0.7,0.3-1.1,0.5c-4.1,2.1-8.2,4.2-12.3,6.2c-2.2,1.1-4.5,1.4-6.9,1.4c-3.2,0-5.7-1.4-7.2-4.2
		c-1.3-2.5-1.6-5.3-1.4-8.1c0.1-1.4,0.4-2.8,0.5-4.2c0-0.3,0.1-0.6,0.1-1c-1.7,0.5-3.3,1.1-4.9,1.6c-2.9,0.9-5.9,1.4-9,1.3
		c-0.6,0-1.2-0.1-1.7-0.2c-0.5-0.1-0.8-0.4-0.8-0.9c0.1-0.5,0.5-0.8,0.9-0.8c0.7,0,1.3,0,2,0c3.5,0,6.9-0.9,10.2-2
		c1-0.3,2-0.8,3-1.1c0.7-0.2,1-0.6,1.2-1.3c2-6.8,5.5-12.9,9.9-18.5c3-3.9,6.5-7.1,10.9-9.4c1.5-0.8,3-1.3,4.7-1.5
		c3.2-0.3,5.1,1.4,5.4,4.5c0.1,1.2-0.1,2.4-0.6,3.5c-0.5,1.1-1,2.2-1.7,3.1c-1.7,2.2-3.5,4.4-5.4,6.5c-5.3,5.5-11.5,9.6-18.4,12.7
		c-0.9,0.4-1.4,0.9-1.6,1.9c-0.7,3.2-1.3,6.3-0.8,9.6c0.1,0.8,0.3,1.6,0.6,2.3c0.9,2.2,2.4,3.2,4.8,3.2c1.9,0,3.6-0.4,5.3-1.1
		c5.3-2.2,10.5-4.8,15.4-7.7c0.6-0.3,1.1-0.9,1.4-1.5c1.4-2.3,3-4.5,5.3-5.9c3.1-1.9,6.4-3.2,10.1-3.2c3.3,0,6.2,1.1,8.4,3.8
		c0.1,0.1,0.2,0.2,0.3,0.3c0,0,0.1,0,0.2,0c0.6-1.1,1.2-2.2,1.9-3.2c0.6-1,1.1-1.3,1.8-1c0.7,0.3,1,1.1,0.6,2.2
		c-0.2,0.5-0.4,1-0.6,1.5c-2.4,5.5-4.2,11.1-5.7,16.9c-0.5,2-0.9,4.1-0.7,6.2c0.1,1,0.4,1.9,0.8,2.8c0.7,1.5,1.9,2.1,3.5,1.6
		c1.4-0.4,2.8-0.9,4.1-1.6c2.5-1.5,5-3.1,7.4-4.8c2.3-1.6,4.4-3.4,6.6-5c0.8-0.5,1.1-1.2,1.2-2.1c0.5-4.5,2-8.8,4.4-12.7
		c0.6-0.9,1.2-1.7,1.8-2.5c4.1-4.5,9.6-3.2,12.5-0.4c0.3,0.3,0.6,0.6,1,1c0.1-0.4,0.1-0.6,0.2-0.8c0.3-6.2,0.6-12.4,1-18.6
		c0.1-1.6,0.3-3.2,0.5-4.8c0-0.4,0.1-0.8,0.2-1.2c0.2-0.8,0.7-1.2,1.3-1.1c0.7,0.1,1,0.6,1,1.2c0.1,1.8,0.1,3.6,0.1,5.4
		c-0.2,7.1-0.4,14.2-0.5,21.3c-0.1,5-0.1,10.1,0,15.1c0,1.9,0.5,3.7,0.8,5.5c0,0.1,0.1,0.3,0.1,0.4c0.8,2.1,2.1,2.5,3.8,1.1
		c1-0.8,2-1.7,2.8-2.7c1.7-2.2,3.3-4.4,4.8-6.6c1.6-2.4,3.1-4.9,4.7-7.4c0.9-1.3,1.1-2.6,1-4c-0.2-4.9-0.3-9.9-0.5-14.9
		c0-0.7-0.1-1.4-0.1-2.1c0-0.8,0.3-1.3,0.9-1.5c0.6-0.1,1.2,0.2,1.4,0.9c0.3,0.7,0.5,1.5,0.6,2.3c0.2,3.1,0.4,6.2,0.6,9.2
		c0.3,3.7,0.7,7.4,1,11.1c0.1,0.6,0.3,1.2,0.5,1.8c0.5,1.2,1.1,1.5,2.3,1.1c1.5-0.4,2.9-1.1,4-2.1c1.3-1.2,2.5-2.4,3.5-3.8
		c2.8-3.8,5.4-7.7,8.2-11.4c1.3-1.7,1.7-3.1,1-5.2c-0.9-2.8-1.3-5.8-1.8-8.8c-0.3-2-0.4-4.1-0.6-6.1c-0.1-1.2,0.3-1.9,1-2.1
		c0.8-0.2,1.4,0.4,1.7,1.7c0.2,0.9,0.4,1.8,0.5,2.8c1.2,9,3.7,17.6,7.4,25.9c1.2,2.6,2.3,5.3,2.6,8.1
		C293.8,330.9,292.1,334.3,288.4,336.8z M323.3,280.3c-0.4,1-1.4,1.7-2.5,1.5c-0.6-0.1-1.3-0.4-1.9-0.6c-4.3-1.8-8.6-3.8-12.9-5.5
		c-8-3.2-16.4-5.3-25-6.3c-4-0.5-8.1-0.7-12.2-0.5c-2.9,0.1-5.7,0.3-8.6,0.4c-0.6,0-1.2-0.1-1.6-0.5c-0.8-0.8-0.5-2.1,0.7-2.5
		c0.7-0.2,1.4-0.4,2.1-0.4c3.9-0.3,7.7-0.5,10-0.7c12.7,0.1,23.4,2.1,33.8,5.6c5.6,1.8,11,4.2,16.3,6.7c0.2,0.1,0.5,0.2,0.7,0.4
		C323.2,278.4,323.6,279.3,323.3,280.3z M329.7,92.4c-1.2,4.3-2.5,8.5-3.7,12.7c-2,7.4-3.5,15-4.4,22.6c-0.4,3.2-0.4,6.4-0.7,9.6
		c0,0.6-0.1,1.2-0.2,1.7c-0.2,0.9-0.9,1.5-1.8,1.5c-0.9,0-1.6-0.5-1.8-1.5c-0.1-0.6-0.2-1.1-0.2-1.7c-0.2-6.9,0.4-13.8,1.5-20.7
		c1.2-7.1,2.7-14.1,5.1-20.9c0.1-0.3,0.1-0.6,0.2-1.1c-0.6,0.5-1.1,0.8-1.6,1.1c-10.4,7.9-21.3,15.1-32.6,21.6
		c-2.3,1.3-4.7,2.3-7.1,3.4c-0.6,0.3-1.4,0.5-2.1,0.5c-0.5,0.1-1,0-1.4-0.2c-0.9-0.4-0.9-1.5-0.2-2.1c0.2-0.2,0.4-0.3,0.7-0.4
		c4.9-2.2,9.4-5.2,13.9-8c11-6.8,21.4-14.4,31.7-22.2c0.6-0.5,1.3-1,2.1-1c1.6-0.1,2.8,1,2.8,2.6C330.1,90.8,329.9,91.6,329.7,92.4z
		"/>
	<path d="M193.9,319.5c-0.8-0.9-1.7-1.6-2.8-2c-2-0.9-4.1-1-6.3-0.5c-3.1,0.8-6.1,1.9-8.2,4.5c-1.9,2.4-3.6,4.9-4.6,7.8
		c-0.6,1.6-1,3.3-1,5.1c0.1,2.9,1.6,4.7,4.5,5.2c0.5,0.1,1.1,0.1,1.4,0.1c2.2-0.1,4-0.7,5.7-1.7c2.2-1.2,4.3-2.5,6.5-3.8
		c0.7-0.4,1.1-1,1.4-1.7c1.3-3.1,2.5-6.3,4-9.4C195.1,321.6,194.8,320.6,193.9,319.5z"/>
	<path d="M230.6,316.7c-1.8-0.4-3.3,0.1-4.5,1.3c-0.9,0.9-1.7,2-2.3,3.1c-3.5,5.7-4.2,12.1-4.1,18.9c0.2,0.8,0.4,1.9,0.7,2.9
		c0.7,2,1.5,2.6,3.6,2.7c0.6,0,1.2-0.1,1.7-0.3c1.7-0.5,3.2-1.4,4.4-2.7c1.5-1.5,2.9-3.2,4.4-4.7c1.1-1.2,1.5-2.4,1.5-4.1
		c-0.1-3.5,0.2-7,0.3-10.6c0-0.6,0.1-1.3-0.1-1.8C235.1,319,233.4,317.3,230.6,316.7z"/>
	<path d="M168,297c0.7-0.9,1.3-1.8,1.8-2.8c0.4-0.9,0.7-1.9,0.7-2.8c0.2-2-1.1-3-3-2.6c-0.9,0.2-1.7,0.5-2.5,0.9
		c-3.2,1.6-5.9,3.9-8.2,6.5c-3.8,4.3-6.9,9.1-9.4,14.3c-0.5,1-0.9,2-1.4,3.2c0.4-0.1,0.5-0.1,0.6-0.1C155,309.8,162.3,304.4,168,297
		z"/>
	<path d="M230.5,212.1c-0.1-1.3-0.3-2.7-0.4-4c-0.4-4.7-0.8-9.3-1.3-14c-0.4-4.5-0.9-9.1-1.4-13.6c-0.7-5.5-1.4-11.1-2.3-16.6
		c-0.8-5.3-1.8-10.6-2.8-15.9c-0.6-3-1.4-5.9-2.1-8.9c-0.1-0.5-0.4-1-0.7-1.6c-0.3,0.4-0.5,0.6-0.6,0.8c-1,2-2.1,3.9-2.9,6
		c-2.9,7.4-5.2,15-7.3,22.7c-3.5,12.9-6.4,25.9-9.3,38.9c-0.5,2.2-0.9,4.4-1.4,6.5c11,0.3,21.7,0.7,32.7,1
		C230.6,212.9,230.5,212.5,230.5,212.1z"/>
	<path d="M179.4,188c3.4-3.4,5.9-7.4,8-11.7c4.3-8.9,6.5-18.1,5.2-28c-0.3-2.8-1.1-5.5-2.5-8c-1.6-2.9-3.9-4.7-7.1-5.6
		c-0.8-0.2-1.6-0.4-2.3-0.6c-4,20.8-9.8,41-14.2,61.9c0.7-0.2,1.2-0.4,1.7-0.6C172.5,193.8,176.2,191.2,179.4,188z"/>
	<path d="M202.9,251c-0.6,0.6-1.2,1.2-1.6,1.9c-2.6,3.9-3.3,8.3-3.5,12.3c0,4.1,0.8,7.7,2.3,10.3c0.3,0.6,0.8,1.2,1.2,1.7
		c0.6,0.7,1.3,0.7,2.1,0.3c0.4-0.2,0.8-0.5,1-0.8c2.1-2.6,3.4-5.4,3.7-8.7c0.2-1.7,0.3-3.5,0.5-5.2c0.4-3.2,0.9-6.4,1.4-9.7
		c0.1-0.4,0.1-1-0.1-1.3C207.7,249.3,204.8,249.4,202.9,251z"/>
</g>
</svg>
